<svg width="172" height="31" viewBox="0 0 172 31" fill="none" xmlns="http://www.w3.org/2000/svg">
<path d="M124.886 4.00649L124.886 20.0054C124.886 22.3585 126.794 24.2662 129.147 24.2662C130.761 24.2662 132.236 23.3544 132.958 21.911L138.009 11.8096C140.949 5.92806 149.343 5.92806 152.284 11.8096L157.334 21.911C158.056 23.3544 159.531 24.2662 161.145 24.2662C163.498 24.2662 165.406 22.3585 165.406 20.0054L165.406 4.00649C165.406 2.40804 166.702 1.11224 168.3 1.11224C169.899 1.11224 171.194 2.40804 171.194 4.00649L171.194 20.0054C171.194 25.5554 166.695 30.0547 161.145 30.0547C157.339 30.0547 153.859 27.9041 152.157 24.4997L147.106 14.3984C146.299 12.7832 143.994 12.7832 143.186 14.3984L138.136 24.4997C136.433 27.9041 132.954 30.0547 129.147 30.0547C123.597 30.0547 119.098 25.5554 119.098 20.0054L119.098 4.00649C119.098 2.40804 120.394 1.11225 121.992 1.11225C123.591 1.11225 124.886 2.40804 124.886 4.00649Z" fill="url(#paint0_linear_233_4386)"/>
<path d="M47.6104 19.9259V4.00753C47.6104 2.40908 48.9061 1.11328 50.5046 1.11328C52.103 1.11328 53.3988 2.40908 53.3988 4.00753V19.9259C53.3988 22.3235 55.3425 24.2672 57.7402 24.2672H70.7643C72.3628 24.2672 73.6586 25.563 73.6586 27.1615C73.6586 28.7599 72.3628 30.0557 70.7643 30.0557H57.7402C52.1456 30.0557 47.6104 25.5204 47.6104 19.9259Z" fill="url(#paint1_linear_233_4386)"/>
<path d="M94.4969 24.1217C99.0739 24.1217 102.789 23.4058 105.257 21.981C107.496 20.6884 108.823 18.7766 108.823 15.5837C108.823 12.3908 107.496 10.479 105.257 9.18641C102.789 7.76164 99.0739 7.04569 94.4969 7.04569C89.92 7.04569 86.2054 7.76164 83.7371 9.18641C81.4978 10.479 80.1704 12.3908 80.1704 15.5837C80.1704 18.7766 81.4978 20.6884 83.7371 21.981C86.2053 23.4058 89.92 24.1217 94.4969 24.1217ZM94.4969 30.1996C89.4833 30.1996 84.5152 29.4481 80.6984 27.2449C76.6526 24.9095 74.0925 21.0326 74.0925 15.5837C74.0925 10.1348 76.6526 6.25792 80.6984 3.9225C84.5152 1.71928 89.4833 0.967773 94.4969 0.967773C99.5106 0.967773 104.479 1.71928 108.295 3.9225C112.341 6.25792 114.901 10.1348 114.901 15.5837C114.901 21.0326 112.341 24.9095 108.295 27.2449C104.479 29.4481 99.5106 30.1996 94.4969 30.1996Z" fill="url(#paint2_linear_233_4386)"/>
<path d="M20.4041 0.967773L37.7695 0.967773C39.4479 0.967775 40.8085 2.32836 40.8085 4.00673C40.8085 5.63268 39.5316 6.96038 37.9258 7.04173L37.7695 7.04569L20.4041 7.04569C15.8271 7.04569 12.1125 7.76164 9.64421 9.18641C7.4049 10.479 6.07756 12.3908 6.07756 15.5837C6.07756 18.7766 7.4049 20.6884 9.6442 21.981C12.1125 23.4058 15.8271 24.1217 20.4041 24.1217L35.3719 24.1217C36.1011 24.1217 36.8005 23.8321 37.3162 23.3165C38.3899 22.2427 38.3899 20.5017 37.3162 19.4279C36.8005 18.9123 36.1011 18.6227 35.3719 18.6227L26.1926 18.6227C24.5142 18.6227 23.1536 17.2621 23.1536 15.5837C23.1536 13.9053 24.5142 12.5448 26.1926 12.5448L35.3719 12.5448C37.7131 12.5448 39.9583 13.4749 41.6137 15.1304C45.061 18.5777 45.061 24.1667 41.6137 27.614C39.9583 29.2695 37.7131 30.1996 35.3719 30.1996L20.4041 30.1996C15.3904 30.1996 10.4223 29.4481 6.60553 27.2449C2.55977 24.9095 -0.000357395 21.0326 -0.000356681 15.5837C-0.000355967 10.1348 2.55978 6.25792 6.60553 3.9225C10.4223 1.71928 15.3904 0.967773 20.4041 0.967773Z" fill="url(#paint3_linear_233_4386)"/>
<defs>
<linearGradient id="paint0_linear_233_4386" x1="145.146" y1="30.0547" x2="145.146" y2="1.11224" gradientUnits="userSpaceOnUse">
<stop stop-color="white"/>
<stop offset="1" stop-color="#DCDCDC"/>
</linearGradient>
<linearGradient id="paint1_linear_233_4386" x1="60.6345" y1="1.11328" x2="60.6345" y2="30.0557" gradientUnits="userSpaceOnUse">
<stop stop-color="white"/>
<stop offset="1" stop-color="#DCDCDC"/>
</linearGradient>
<linearGradient id="paint2_linear_233_4386" x1="114.901" y1="15.5837" x2="74.0925" y2="15.5837" gradientUnits="userSpaceOnUse">
<stop stop-color="white"/>
<stop offset="1" stop-color="#DCDCDC"/>
</linearGradient>
<linearGradient id="paint3_linear_233_4386" x1="44.1992" y1="15.5837" x2="-0.000356681" y2="15.5837" gradientUnits="userSpaceOnUse">
<stop stop-color="white"/>
<stop offset="1" stop-color="#DCDCDC"/>
</linearGradient>
</defs>
</svg>
