<svg width="91" height="65" viewBox="0 0 91 65" fill="none" xmlns="http://www.w3.org/2000/svg">
<mask id="mask0_233_4391" style="mask-type:alpha" maskUnits="userSpaceOnUse" x="0" y="0" width="91" height="65">
<path d="M45.5 0C56.6799 1.62639e-07 67.7584 1.67123 76.2695 6.57031C85.2911 11.7633 91 20.3839 91 32.5C91 44.6161 85.2911 53.2367 76.2695 58.4297C67.7584 63.3288 56.6799 65 45.5 65C34.3201 65 23.2416 63.3288 14.7305 58.4297C5.70887 53.2367 -3.88496e-07 44.6161 0 32.5C1.13452e-06 20.3839 5.70887 11.7633 14.7305 6.57031C23.2416 1.67123 34.3201 7.71938e-08 45.5 0Z" fill="white"/>
</mask>
<g mask="url(#mask0_233_4391)">
<g filter="url(#filter0_f_233_4391)">
<path d="M45.5 -6.06641C58.8094 -6.06639 71.9977 -4.08308 82.1299 1.73047C92.8699 7.89284 99.666 18.1223 99.666 32.5C99.666 46.8778 92.87 57.1081 82.1299 63.2705C71.9977 69.0839 58.8093 71.0664 45.5 71.0664C32.1905 71.0664 19.0014 69.0841 8.86914 63.2705C-1.87085 57.1081 -8.66699 46.8778 -8.66699 32.5C-8.66694 18.1225 -1.87065 7.89287 8.86914 1.73047C19.0014 -4.08312 32.1905 -6.06641 45.5 -6.06641ZM45.0635 0.650391C44.9287 12.5387 39.2496 21.0156 30.3359 26.1465C21.9349 30.9822 11.0324 32.671 0 32.7139V32.7188C11.0324 32.7616 21.9349 34.4514 30.3359 39.2871C39.2496 44.418 44.9288 52.8948 45.0635 64.7832H45.0703C45.205 52.8947 50.8841 44.418 59.7979 39.2871C67.9788 34.5782 78.5315 32.8524 89.2666 32.7256V32.707C78.5316 32.5802 67.9788 30.8554 59.7979 26.1465C50.8842 21.0156 45.2051 12.5388 45.0703 0.650391H45.0635Z" fill="white"/>
</g>
</g>
<defs>
<filter id="filter0_f_233_4391" x="-13.667" y="-11.0664" width="118.333" height="87.1328" filterUnits="userSpaceOnUse" color-interpolation-filters="sRGB">
<feFlood flood-opacity="0" result="BackgroundImageFix"/>
<feBlend mode="normal" in="SourceGraphic" in2="BackgroundImageFix" result="shape"/>
<feGaussianBlur stdDeviation="2.5" result="effect1_foregroundBlur_233_4391"/>
</filter>
</defs>
</svg>
